<svg xmlns="http://www.w3.org/2000/svg" viewBox="0 0 512 512">
  <defs>
    <linearGradient id="bg" x1="0" y1="0" x2="512" y2="512" gradientUnits="userSpaceOnUse">
      <stop offset="0%"   stop-color="#1a5296"/>
      <stop offset="100%" stop-color="#082d58"/>
    </linearGradient>
    <linearGradient id="gl" x1="0" y1="0" x2="0" y2="512" gradientUnits="userSpaceOnUse">
      <stop offset="0%"   stop-color="white" stop-opacity="0.28"/>
      <stop offset="55%"  stop-color="white" stop-opacity="0"/>
    </linearGradient>
    <clipPath id="fc">
      <path d="M206,65 L206,190 C148,220 84,294 66,368 C48,428 72,466 132,472 L380,472 C440,466 464,428 446,368 C428,294 364,220 306,190 L306,65 Z"/>
    </clipPath>
  </defs>

  <!-- Squircle background -->
  <rect width="512" height="512" rx="114" fill="url(#bg)"/>
  <rect width="512" height="512" rx="114" fill="url(#gl)"/>

  <!-- Flask glass body -->
  <path d="M206,65 L206,190 C148,220 84,294 66,368 C48,428 72,466 132,472 L380,472 C440,466 464,428 446,368 C428,294 364,220 306,190 L306,65 Z"
    fill="white" fill-opacity="0.1"
    stroke="white" stroke-width="14" stroke-linejoin="round"/>

  <!-- Neck stopper -->
  <rect x="190" y="50" width="132" height="20" rx="10"
    fill="white" fill-opacity="0.9"/>

  <!-- Liquid + molecule clipped inside flask -->
  <g clip-path="url(#fc)">
    <rect x="40" y="358" width="432" height="130" fill="white" fill-opacity="0.28"/>
    <path d="M66,362 Q170,350 256,364 Q342,378 446,362"
      fill="none" stroke="white" stroke-width="3.5" stroke-opacity="0.5"/>
    <circle cx="256" cy="426" r="22" fill="white" fill-opacity="0.92"/>
    <line x1="238" y1="410" x2="182" y2="386"
      stroke="white" stroke-width="10" stroke-opacity="0.85" stroke-linecap="round"/>
    <circle cx="170" cy="380" r="16" fill="white" fill-opacity="0.88"/>
    <line x1="274" y1="410" x2="330" y2="386"
      stroke="white" stroke-width="10" stroke-opacity="0.85" stroke-linecap="round"/>
    <circle cx="342" cy="380" r="16" fill="white" fill-opacity="0.88"/>
    <line x1="256" y1="448" x2="256" y2="463"
      stroke="white" stroke-width="10" stroke-opacity="0.78" stroke-linecap="round"/>
    <circle cx="256" cy="471" r="13" fill="white" fill-opacity="0.78"/>
    <circle cx="148" cy="447" r="9"  fill="white" fill-opacity="0.38"/>
    <circle cx="354" cy="455" r="7"  fill="white" fill-opacity="0.30"/>
    <circle cx="308" cy="424" r="5"  fill="white" fill-opacity="0.26"/>
  </g>

  <!-- Glass specular highlight on shoulder -->
  <path d="M288,200 C332,224 382,274 402,330 C406,342 402,354 394,356 C385,358 372,344 368,332 C350,280 306,234 278,216 Z"
    fill="white" fill-opacity="0.16"/>
</svg>
